<svg width="276" height="49" viewBox="0 0 276 49" fill="none" xmlns="http://www.w3.org/2000/svg">
<path d="M0 48.1262V20.3316H7.3533V48.1262H0Z" fill="white"/>
<path d="M24.12 48.8621C21.8617 48.8621 19.8491 48.506 18.0821 47.7858C16.3151 47.0656 14.8175 46.0684 13.5972 44.7864C12.3769 43.5043 11.4419 41.9531 10.8001 40.1487C10.1583 38.3363 9.84131 36.3578 9.84131 34.2051C9.84131 32.0129 10.1662 30.0185 10.8318 28.2062C11.4895 26.3938 12.4403 24.8506 13.6844 23.5685C14.9284 22.2864 16.426 21.2971 18.1692 20.6007C19.9204 19.9042 21.9014 19.556 24.12 19.556C26.2991 19.556 28.2563 19.9042 29.9916 20.6007C31.719 21.2971 33.2007 22.2785 34.421 23.5447C35.6413 24.811 36.5842 26.3464 37.2419 28.1587C37.8995 29.971 38.2323 31.9892 38.2323 34.213C38.2323 36.4369 37.8995 38.4471 37.2419 40.2436C36.5842 42.0322 35.6413 43.5755 34.421 44.8576C33.2007 46.1397 31.711 47.1289 29.9599 47.8333C28.2166 48.5139 26.2674 48.8621 24.12 48.8621ZM24.1517 42.7049C28.6366 42.7049 30.879 39.8796 30.879 34.2289C30.879 28.6177 28.6366 25.8082 24.1517 25.8082C19.6668 25.8082 17.4244 28.6177 17.4244 34.2289C17.4165 39.8796 19.6589 42.7049 24.1517 42.7049Z" fill="white"/>
<path d="M58.4779 48.1262V31.2927C58.4779 29.148 58.1213 27.6997 57.4003 26.9399C56.6871 26.1881 55.4589 25.8082 53.7236 25.8082C49.9122 25.8082 48.0105 27.9371 48.0105 32.195V48.1262H40.6572V20.3316H47.6698V24.3837C48.5335 22.785 49.6825 21.5821 51.1087 20.7669C52.535 19.9517 54.3813 19.5402 56.6316 19.5402C57.947 19.5402 59.1673 19.7381 60.3004 20.1338C61.4255 20.5295 62.4002 21.123 63.2005 21.9145C64.0087 22.7059 64.6505 23.6793 65.118 24.8269C65.5856 25.9744 65.8233 27.304 65.8233 28.8156V48.1182H58.4779V48.1262Z" fill="white"/>
<path d="M69.0007 48.1262V20.3316H76.354V48.1262H69.0007Z" fill="white"/>
<path d="M104.515 38.075C104.325 39.6975 103.865 41.1616 103.128 42.4832C102.392 43.8049 101.457 44.9287 100.331 45.8705C99.1982 46.8123 97.9067 47.5483 96.4566 48.0706C95.0065 48.6009 93.4297 48.8621 91.734 48.8621C89.8481 48.8621 88.1207 48.5534 86.5597 47.9282C84.9908 47.303 83.6438 46.3691 82.5186 45.1028C81.3855 43.8445 80.5139 42.2775 79.8879 40.4176C79.2698 38.5499 78.9529 36.3814 78.9529 33.8885C78.9529 31.4034 79.2619 29.2587 79.8879 27.4463C80.5139 25.634 81.3855 24.162 82.5186 23.0144C83.6517 21.8668 85.0146 21.0121 86.6152 20.4423C88.2158 19.8804 89.9987 19.5955 91.9638 19.5955C93.7704 19.5955 95.4186 19.8408 96.9162 20.3315C98.4059 20.8222 99.7054 21.5344 100.815 22.4762C101.924 23.418 102.804 24.5497 103.445 25.8635C104.087 27.1852 104.468 28.6493 104.579 30.2717H97.1697C96.9796 28.8392 96.409 27.7233 95.4423 26.9082C94.4836 26.1009 93.3029 25.6973 91.9083 25.6973C91.1159 25.6973 90.379 25.8318 89.6976 26.093C89.0161 26.3542 88.4218 26.7974 87.9147 27.4226C87.4076 28.0399 87.0035 28.8709 86.7024 29.9076C86.4013 30.9444 86.2507 32.2186 86.2507 33.7223C86.2507 36.7692 86.7975 39.0327 87.8909 40.5047C88.9844 41.9767 90.2443 42.7048 91.6785 42.7048C93.1127 42.7048 94.3409 42.3091 95.3552 41.5177C96.3774 40.7263 96.9558 39.5787 97.1064 38.075H104.515Z" fill="white"/>
<path d="M125.291 48.1261V30.897C125.291 28.7918 124.927 27.3514 124.19 26.5758C123.453 25.8082 122.241 25.4204 120.545 25.4204C119.642 25.4204 118.826 25.6024 118.112 25.9585C117.399 26.3147 116.789 26.8053 116.306 27.4306C115.815 28.0479 115.45 28.7681 115.204 29.5753C114.959 30.3826 114.84 31.261 114.84 32.2028V48.134H107.487V10.1698H114.84L114.824 23.9563C115.086 23.3548 115.49 22.777 116.036 22.231C116.583 21.6849 117.209 21.2259 117.93 20.846C118.643 20.474 119.436 20.1654 120.299 19.9438C121.163 19.7222 122.066 19.6035 123.009 19.6035C125.87 19.6035 128.192 20.387 129.982 21.9461C131.765 23.5131 132.661 25.6815 132.661 28.4673V48.1261H125.291Z" fill="white"/>
<path d="M142.375 36.1519C142.486 38.2571 143.104 39.9349 144.213 41.1774C145.323 42.4199 146.789 43.0372 148.595 43.0372C149.8 43.0372 150.869 42.7681 151.789 42.2221C152.708 41.676 153.302 40.9162 153.571 39.9349H161.147C160.275 42.7998 158.77 44.9999 156.622 46.5432C154.475 48.0865 151.907 48.8621 148.928 48.8621C139.649 48.8621 135.014 43.8128 135.014 33.7223C135.014 31.5775 135.315 29.6386 135.917 27.9054C136.519 26.1721 137.399 24.6843 138.548 23.4418C139.697 22.1992 141.099 21.2495 142.763 20.5847C144.419 19.9279 146.329 19.5955 148.476 19.5955C152.771 19.5955 156.028 20.9725 158.231 23.7188C160.441 26.465 161.543 30.612 161.543 36.144H142.375V36.1519ZM153.968 31.5221C153.928 30.5091 153.754 29.6148 153.429 28.8392C153.112 28.0715 152.684 27.4305 152.153 26.9161C151.622 26.4096 151.02 26.0297 150.347 25.7844C149.665 25.539 148.968 25.4124 148.255 25.4124C146.781 25.4124 145.513 25.9506 144.435 27.0269C143.358 28.1032 142.748 29.599 142.597 31.5142H153.968V31.5221Z" fill="white"/>
<path d="M181.226 48.126C181.004 47.4138 180.853 46.5828 180.774 45.641C179.902 46.6223 178.753 47.3979 177.319 47.9836C175.885 48.5692 174.229 48.8621 172.343 48.8621C169.142 48.8621 166.788 48.1577 165.299 46.7411C163.809 45.3323 163.064 43.4963 163.064 41.2328C163.064 39.2384 163.389 37.6477 164.031 36.4606C164.673 35.2734 165.56 34.3396 166.685 33.6669C167.819 32.9862 169.166 32.4877 170.727 32.1711C172.288 31.8545 173.999 31.5617 175.845 31.2926C177.692 31.0314 178.936 30.6832 179.577 30.2479C180.219 29.8127 180.536 29.1083 180.536 28.1269C180.536 27.2247 180.108 26.5204 179.26 26.006C178.413 25.4994 177.272 25.2462 175.837 25.2462C174.142 25.2462 172.921 25.6261 172.192 26.3779C171.456 27.1298 170.996 28.1269 170.806 29.3695H163.968C164.007 27.937 164.237 26.6233 164.673 25.4124C165.109 24.2094 165.806 23.1727 166.765 22.31C167.723 21.4474 168.975 20.7747 170.521 20.2998C172.066 19.8329 173.944 19.5955 176.162 19.5955C178.341 19.5955 180.196 19.8408 181.717 20.3315C183.238 20.8222 184.459 21.5265 185.378 22.4525C186.297 23.3784 186.962 24.526 187.374 25.9031C187.787 27.2801 187.993 28.8313 187.993 30.5645V48.134H181.226V48.126ZM180.718 34.5137C180.338 34.8936 179.791 35.1943 179.078 35.4159C178.365 35.6454 177.327 35.8907 175.964 36.1519C173.849 36.5634 172.398 37.0937 171.606 37.7347C170.814 38.3758 170.418 39.2938 170.418 40.5047C170.418 42.5782 171.606 43.615 173.983 43.615C174.926 43.615 175.806 43.4567 176.614 43.1322C177.422 42.8156 178.119 42.3804 178.706 41.8343C179.292 41.2882 179.76 40.6472 180.116 39.9111C180.473 39.1751 180.655 38.3916 180.655 37.5685L180.718 34.5137Z" fill="white"/>
<path d="M191.011 48.1261V10.1698H198.365V48.134H191.011V48.1261Z" fill="white"/>
<path d="M217.025 29.8206H223.816V37.7268C223.816 39.1909 223.602 40.5997 223.166 41.9371C222.731 43.2746 222.057 44.4618 221.138 45.4985C220.219 46.5353 219.054 47.3504 217.644 47.9598C216.233 48.5613 214.553 48.862 212.596 48.862C210.568 48.862 208.832 48.5613 207.406 47.9598C205.98 47.3583 204.799 46.5511 203.88 45.5302C202.961 44.5092 202.295 43.33 201.875 41.9688C201.463 40.6155 201.257 39.183 201.257 37.6714V12.8209H208.555V20.3315H223.824V25.5311H208.555V36.9433C208.555 38.7161 208.88 40.0773 209.537 41.0428C210.195 42.0005 211.273 42.4832 212.77 42.4832C214.228 42.4832 215.306 42.0163 216.003 41.0745C216.693 40.1327 217.041 38.7952 217.041 37.062V29.8206H217.025Z" fill="white"/>
<path d="M244.347 48.1261V30.897C244.347 28.7918 243.982 27.3514 243.245 26.5758C242.508 25.8082 241.296 25.4204 239.6 25.4204C238.697 25.4204 237.881 25.6024 237.168 25.9585C236.455 26.3147 235.845 26.8053 235.361 27.4306C234.87 28.0479 234.505 28.7681 234.26 29.5753C234.014 30.3826 233.895 31.261 233.895 32.2028V48.134H226.542V10.1698H233.895L233.879 23.9563C234.141 23.3548 234.545 22.777 235.092 22.231C235.639 21.6849 236.265 21.2259 236.986 20.846C237.699 20.474 238.491 20.1654 239.355 19.9438C240.219 19.7222 241.122 19.6035 242.065 19.6035C244.925 19.6035 247.247 20.387 249.038 21.9461C250.821 23.5131 251.716 25.6815 251.716 28.4673V48.1261H244.347Z" fill="white"/>
<path d="M275.408 12.5123C274.259 11.0799 271.605 9.92441 268.277 9.24379C267.318 3.85425 264.806 0.0158785 261.843 5.02161e-05C258.903 -0.0157781 256.367 3.71179 255.321 9.00637C249.252 10.0194 246.05 12.5361 248.055 15.029C249.188 16.4457 251.795 17.5853 255.06 18.2739C255.868 24.2016 258.499 28.5464 261.66 28.5702C262.762 28.5781 263.808 28.0558 264.735 27.1219C267.342 24.257 268.253 20.0229 268.562 16.9759C268.649 16.1212 268.697 15.2348 268.697 14.3326C268.697 13.9844 268.697 13.6362 268.689 13.2958H268.697C268.697 13.2958 268.697 13.2721 268.697 13.2325C268.697 13.2167 268.697 13.2088 268.697 13.2088L268.823 13.2721C269.996 13.5728 270.86 13.9765 271.24 14.4513C271.819 15.1715 271.209 15.9154 269.782 16.5407C269.711 17.1421 269.616 17.7278 269.497 18.2897C274.671 17.1342 277.246 14.8075 275.408 12.5123ZM259.854 3.48228C261.153 3.4902 262.278 5.54788 262.841 8.579C261.145 8.49986 259.402 8.53152 257.675 8.6898C257.366 8.72146 257.057 8.75312 256.755 8.78477C257.342 5.63493 258.515 3.47437 259.854 3.48228ZM263.182 14.6017C263.047 17.5378 262.595 18.812 262.532 18.9861C261.89 21.4237 260.868 22.9986 259.719 22.9907C259.148 22.9907 258.61 22.5871 258.142 21.8827C257.08 20.3236 256.692 17.6882 256.692 17.6882C255.068 17.4033 254.925 17.34 254.925 17.34C254.775 17.2925 254.632 17.245 254.489 17.2054C253.562 16.9205 252.881 16.5644 252.556 16.1529C251.954 15.401 252.643 14.6096 254.236 13.9685C254.569 13.8261 254.814 13.747 254.814 13.747C259.141 12.3778 263.221 12.639 263.221 12.639C263.221 12.7419 263.221 12.8447 263.221 12.9476C263.221 13.0505 263.221 13.1534 263.221 13.2642C263.221 13.7153 263.205 14.1585 263.182 14.6017Z" fill="#54C5CE"/>
</svg>
