<svg width="31" height="19" viewBox="0 0 31 19" fill="none" xmlns="http://www.w3.org/2000/svg">
<path fill-rule="evenodd" clip-rule="evenodd" d="M0.875 2.1875C0.875 1.5144 1.42065 0.96875 2.09375 0.96875H28.9062C29.5793 0.96875 30.125 1.5144 30.125 2.1875C30.125 2.8606 29.5793 3.40625 28.9062 3.40625H2.09375C1.42065 3.40625 0.875 2.8606 0.875 2.1875ZM0.875 9.5C0.875 8.8269 1.42065 8.28125 2.09375 8.28125H28.9062C29.5793 8.28125 30.125 8.8269 30.125 9.5C30.125 10.1731 29.5793 10.7188 28.9062 10.7188H2.09375C1.42065 10.7188 0.875 10.1731 0.875 9.5ZM0.875 16.8125C0.875 16.1394 1.42065 15.5938 2.09375 15.5938H28.9062C29.5793 15.5938 30.125 16.1394 30.125 16.8125C30.125 17.4856 29.5793 18.0312 28.9062 18.0312H2.09375C1.42065 18.0312 0.875 17.4856 0.875 16.8125Z" fill="white"/>
</svg>
